<svg width="20" height="20" viewBox="0 0 20 20" fill="none" xmlns="http://www.w3.org/2000/svg">
<path d="M9.37376 0.264326L9.37485 0.264225C9.48908 0.253061 9.68192 0.248262 9.86677 0.250563C9.95804 0.251699 10.044 0.254528 10.1139 0.258797C10.1488 0.260935 10.1783 0.263348 10.2016 0.265892C10.2131 0.267157 10.2224 0.268366 10.2294 0.269442C10.2367 0.270571 10.2398 0.271269 10.2396 0.271233L10.2424 0.271873L10.2424 0.271858C10.3827 0.303268 10.4266 0.403093 10.4002 0.496988L10.3994 0.49966L10.3994 0.499664C10.3847 0.55431 10.3749 0.561405 10.3597 0.572388L10.3592 0.572748C10.3221 0.599527 10.2461 0.634089 10.0625 0.69095C7.9361 1.34088 6.22541 2.76478 5.23188 4.71752L9.37376 0.264326ZM9.37376 0.264326C8.28986 0.365437 7.31971 0.588581 6.44556 0.934515L6.44535 0.934603M9.37376 0.264326L6.44535 0.934603M6.44535 0.934603C4.20817 1.81751 2.36534 3.48889 1.28278 5.61576C0.813597 6.53808 0.455473 7.70332 0.304439 8.7981L0.304417 8.79826M6.44535 0.934603L0.304417 8.79826M7.30365 19.3471C8.37916 19.6445 9.11065 19.75 10.1108 19.75C12.8925 19.75 15.5851 18.5561 17.4268 16.5088L17.427 16.5086C18.5199 15.2963 19.2327 13.9713 19.6486 12.3835L19.6487 12.3828C19.7176 12.123 19.7454 11.9884 19.7495 11.9015C19.7525 11.8382 19.7435 11.8106 19.7136 11.7604C19.6997 11.7373 19.6558 11.7028 19.5786 11.6965C19.5023 11.6903 19.4531 11.7165 19.4348 11.7373C19.404 11.7748 19.3256 11.8921 19.2623 12.0023C19.2621 12.0026 19.262 12.0029 19.2618 12.0032L19.0449 11.8788M7.30365 19.3471L12.3327 16.0521H12.3317C11.5392 16.0521 11.173 16.013 10.4928 15.8552M7.30365 19.3471C6.13145 19.0222 4.95012 18.4199 3.96951 17.6413M7.30365 19.3471L3.96951 17.6413M19.0449 11.8788C18.0039 13.7297 16.2404 15.0811 14.2088 15.5805M19.0449 11.8788C19.1112 11.7633 19.1995 11.6291 19.2437 11.5761L19.0449 11.8788ZM14.2088 15.5805L14.2693 15.823C14.2691 15.8231 14.269 15.8231 14.2689 15.8232C14.2687 15.8232 14.2686 15.8232 14.2685 15.8233L14.2088 15.5805ZM14.2088 15.5805C13.4832 15.7615 13.1456 15.799 12.3317 15.8021C11.5557 15.8021 11.2087 15.7646 10.5493 15.6117M10.5493 15.6117L10.493 15.8553C10.4929 15.8552 10.4929 15.8552 10.4928 15.8552M10.5493 15.6117L10.4928 15.8552M10.5493 15.6117L10.4928 15.8552M10.4928 15.8552C8.56922 15.41 6.83739 14.2114 5.72359 12.5555M10.4928 15.8552L5.72359 12.5555M5.72359 12.5555C5.19536 11.7747 4.77553 10.7998 4.58244 9.90963L5.72359 12.5555ZM0.304417 8.79826C0.269067 9.05328 0.25 9.51866 0.25 9.99678C0.25 10.4749 0.269067 10.9403 0.304417 11.1953L0.304461 11.1956M0.304417 8.79826L0.304461 11.1956M0.304461 11.1956C0.661694 13.7976 1.92546 16.018 3.96951 17.6413M0.304461 11.1956L3.96951 17.6413M4.74044 5.90863L4.74004 5.90983C4.35666 7.10612 4.29926 8.61153 4.58237 9.90931L4.74044 5.90863ZM4.74044 5.90863C4.83873 5.60717 5.08633 5.00237 5.23166 4.71796L4.74044 5.90863Z" fill="white" stroke="white" stroke-width="0.5"/>
</svg>
